# xmcd
#
# Track frame offsets:
#	150
#	10155
#	25247
#	37480
#	49182
#	58755
#	70512
#	79070
#	91797
#	107637
#	120767
#	132345
#	143110
#	154660
#	166485
#	177792
#	190597
#	204092
#	217802
#	229192
#
# Disc length: 3207
#
# Revision: 1
# Processed by: cddbd v1.5.1PL0 Copyright (c) Steve Scherf et al.
# Submitted via: dBpowerAMP V4.0
# Normalized: r0:TDELIM( - )
#
DISCID=000c8514
DTITLE=Various Artist - The Irish Showband Collection Disc1
DYEAR=1900
DGENRE=Country
TTITLE0=Papa-Oow-Mow-Mow - Freshmen
TTITLE1=Many the Memories - Real McCoy
TTITLE2=Crystal Chandeliers - Tony Keeling and The Graduates
TTITLE3=Michael Murphy's Boy - Alan Dee and the Chessmen
TTITLE4=I Love You More Today - Brendan O'Brien and The Dixies
TTITLE5=The Road by the River - Margo and the Keynotes
TTITLE6=She Wears My Ring - Sean Fagan and the Pacific
TTITLE7=Down Came the Rain - Butch Moore and the Capitol
TTITLE8=Snowball Crazy - Hoedowners
TTITLE9=One Kiss for Old Times Sake - Murty Quinn and the Miami
TTITLE10=Two of a Kind - Joe Dolan and the Drifters
TTITLE11=Santo Natale - Shay O'Hara and the Royal Blues
TTITLE12=Black Velvet Band - Johnny Kelly and the Capitol
TTITLE13=Just for Old Times sake - Dickie Rock and the Miami
TTITLE14=Right or Wrong - Eileen Reid and the Cadets
TTITLE15=No One Knows - Sonny Knowles and the Pacific
TTITLE16=Our Love Will Go On - Butch Moore and the Capitol
TTITLE17=The Leaving of Liverpool - Pat Lynch and the Airchords
TTITLE18=Land of Gingerbread - Gregory and the Cadets
TTITLE19=Little Arrows - Brendan O'Brien and the Dixies
EXTD=
EXTT0=
EXTT1=
EXTT2=
EXTT3=
EXTT4=
EXTT5=
EXTT6=
EXTT7=
EXTT8=
EXTT9=
EXTT10=
EXTT11=
EXTT12=
EXTT13=
EXTT14=
EXTT15=
EXTT16=
EXTT17=
EXTT18=
EXTT19=
PLAYORDER=
